<?xml version="1.0" encoding="UTF-8" standalone="no"?>
<svg
   id="svg"
   version="1.1"
   width="400"
   height="400"
   viewBox="0 0 400 400"
   sodipodi:docname="favicon.svg"
   inkscape:version="1.2.1 (9c6d41e4, 2022-07-14)"
   inkscape:export-filename="favicon.png"
   inkscape:export-xdpi="122.88"
   inkscape:export-ydpi="122.88"
   xmlns:inkscape="http://www.inkscape.org/namespaces/inkscape"
   xmlns:sodipodi="http://sodipodi.sourceforge.net/DTD/sodipodi-0.dtd"
   xmlns="http://www.w3.org/2000/svg"
   xmlns:svg="http://www.w3.org/2000/svg">
  <defs
     id="defs574" />
  <sodipodi:namedview
     id="namedview572"
     pagecolor="#ffffff"
     bordercolor="#000000"
     borderopacity="0.25"
     inkscape:showpageshadow="2"
     inkscape:pageopacity="0.0"
     inkscape:pagecheckerboard="0"
     inkscape:deskcolor="#d1d1d1"
     showgrid="false"
     inkscape:zoom="0.21393353"
     inkscape:cx="-1177.936"
     inkscape:cy="-168.27657"
     inkscape:window-width="1309"
     inkscape:window-height="404"
     inkscape:window-x="0"
     inkscape:window-y="25"
     inkscape:window-maximized="0"
     inkscape:current-layer="g567">
    <inkscape:grid
       type="xygrid"
       id="grid1475"
       originx="-653.19586"
       originy="-21.354272" />
  </sodipodi:namedview>
  <g
     id="svgg"
     transform="translate(-654.83153,-24.625619)">
    <g
       id="g9066"
       transform="matrix(2.3473943,0,0,2.3473943,-846.56267,-749.21052)">
      <g
         id="g567">
        <g
           id="g594">
          <g
             id="g1468"
             transform="matrix(0.99563999,0,0,0.99563995,-22.207775,-11.896223)">
            <ellipse
               style="display:inline;fill:#323232;fill-opacity:1;stroke-width:8.35502"
               id="path6293-6-9"
               cx="748.05566"
               cy="418.67313"
               inkscape:label="path6293-6"
               rx="65.729431"
               ry="65.795494"
               transform="matrix(1.0024725,0,0,1.001466,-5.6152518,0.35123068)" />
            <ellipse
               style="display:inline;fill:#ffdead;fill-opacity:1;stroke-width:7.16921"
               id="path6293-6"
               cx="744.28998"
               cy="419.63812"
               inkscape:label="path6293-6"
               rx="50.800148"
               ry="62.681232" />
          </g>
          <g
             id="g1582"
             transform="matrix(1.2347921,-0.02594153,-0.08468452,1.2438372,-139.53792,-92.823095)">
            <path
               style="display:inline;fill:#ffcc00;fill-opacity:1;stroke:none;stroke-width:4.99017;stroke-linecap:round;stroke-linejoin:round;stroke-miterlimit:20;stroke-dasharray:none;stroke-opacity:1"
               d="m 734.41312,436.43593 28.6389,49.4526 30.44182,-28.76404 z"
               id="path9027"
               inkscape:label="path9027" />
            <path
               d="m 740.06264,450.92935 c -6.13479,-10.35416 -9.26723,-15.90862 -9.50333,-16.8514 -0.46724,-1.8658 -0.1102,-2.68945 1.30115,-3.00132 2.05709,-0.4546 5.25757,0.42861 26.54094,7.32413 3.2719,1.06007 20.12852,6.82304 25.26175,8.61997 9.82347,3.43882 11.45117,4.28306 12.47549,6.47072 0.61759,1.31887 -0.0531,4.16385 -1.4018,5.94639 -0.54208,0.71642 -4.08603,4.1799 -7.8755,7.69666 -3.78944,3.51673 -8.62564,8.08304 -10.74712,10.14732 -8.72618,8.49099 -8.31999,8.14425 -10.26463,8.76217 -1.6312,0.51831 -1.94267,0.51493 -3.30541,-0.0362 l 2.7e-4,-6e-5 c -0.82748,-0.33462 -1.89165,-1.05405 -2.36485,-1.59876 -0.47317,-0.54471 -2.43389,-3.66049 -4.35716,-6.92399 m 20.63677,-10.35775 c 10.47889,-9.95498 10.83725,-10.08924 10.65481,-10.81772 -0.17917,-0.71561 -2.36895,-1.53275 -22.9233,-8.554 -12.49885,-4.26953 -22.44773,-8.48547 -22.75417,-8.40858 -0.40011,0.10046 22.56046,38.60347 23.51107,38.34873 0.48952,-0.13101 4.65345,-4.05318 11.51159,-10.56843 z"
               style="display:inline;fill:#323232;stroke-width:0.132379"
               id="path469"
               sodipodi:nodetypes="cssccsssssccscsssscs" />
          </g>
        </g>
      </g>
    </g>
  </g>
</svg>
